# xmcd
#
# Track frame offsets: 
#        150
#        17316
#        34449
#        53507
#        87685
#        104081
#        118489
#        135331
#        166494
#
# Disc length: 2415 seconds
#
# Revision: 6
# Processed by: cddbd v1.5.2PL0 Copyright (c) Steve Scherf et al.
# Submitted via: ExactAudioCopy v0.99pb4
#
DISCID=79096d09
DTITLE=Breakout - Kamienie
DYEAR=1974
DGENRE=Blues
TTITLE0=Czy zgadniesz
TTITLE1=Czulosc niose Tobie
TTITLE2=Spiekota
TTITLE3=Modlitwa
TTITLE4=Badz sloncem
TTITLE5=Pojde prosto
TTITLE6=Kolo mego okna
TTITLE7=Kamienie
TTITLE8=Tobie ta piesn
EXTD=POLISH BLUES YEAR: 1974
EXTT0=
EXTT1=
EXTT2=
EXTT3=
EXTT4=
EXTT5=
EXTT6=
EXTT7=
EXTT8=
PLAYORDER=
